<svg version="1.1" id="Layer_1" xmlns="http://www.w3.org/2000/svg" xmlns:xlink="http://www.w3.org/1999/xlink"
	 viewBox="0 0 612 792" style="enable-background:new 0 0 612 792;" xml:space="preserve">
<style type="text/css">
	.st0{fill:#000100;}
	.st1{fill:#FAFCFA;}
</style>
<path class="st0" d="M674.97,560.04c-16.06,0.8-32.07,2.54-48.17,2.71c-7.32,0.08-14.63,0.53-21.95-0.11
	c-1.26-0.11-2.65-0.64-3.81,0.44c-21-1.9-42.25-2.74-60.86-15.33c-3.03,10.28-3.28,21.15-10.04,29.77c-0.54-0.08-0.72,0.13-0.5,0.64
	c-0.48,0.54-0.97,1.08-1.45,1.61c-0.11,0.04-0.22,0.08-0.33,0.12c0.1-0.03,0.21-0.06,0.31-0.09c-0.94,1.09-0.87,2.12,0.19,3.08
	c-1.31,3.71-2.59,7-7.63,3.76c-1.64-1.05-4.22-0.57-6.34-0.94c-22.24-3.92-36.58-17.69-46.49-37.13
	c-8.38-16.45-12.11-34.1-13.86-52.27c-0.29-3.05-0.85-5.21-3.96-6.73c-11.05-5.39-22.46-10.3-32.75-16.93
	c-8.68-5.6-17-12.37-22.6-21.45c-5.39-8.74-3.75-15.19,5.05-21.31c11.74-8.15,24.61-8.15,37.84-4.73c6.78,1.76,6.93,1.87,9.12-4.7
	c8.07-24.14,16.92-48.08,20.54-73.45c1.55-10.87,2.14-21.84,2.68-32.82c1.76-35.97,5.42-71.66,15.85-106.36
	c7.61-25.31,18.23-49.03,36.33-68.69c6.41-6.96,13.67-13.23,21.95-17.96c3.83-2.19,4.95-5.03,4.49-9.01c-0.06-0.5-0.19-1-0.15-1.49
	c0.33-4.64,0.02-7.85-6.4-5.85c-3.64,1.13-6.46-1.65-7.97-5.32c-3.46-8.43-2.46-17.1-1.05-25.62c2.15-12.95,3.79-26.02,7.69-38.64
	c1.53-4.97,3.38-9.78,6.1-14.18c2.48-4.02,5.05-4.01,7.54,0c3.46,5.58,4.52,12.11,6.56,18.23c6.12,18.32,11.61,36.81,13.83,56.11
	c0.36,3.15,0.18,5.58-2.83,7.19c-1.88,1-2.37,2.52-1.95,4.62c0.41,2.08,1.02,2.42,2.93,1.27c6.49-3.91,13.43-5.75,21.03-3.94
	c1.53,0.37,3.05,0.02,2.71-1.73c-0.43-2.2,2.27-5.29-1.23-6.53c-3.35-1.18-3.55-3.53-3.46-6.32c0.16-5.04,1.32-9.92,2.83-14.66
	c4.52-14.24,7.18-29.12,14.5-42.4c0.8-1.45,1.52-3.12,3.52-3.14c2.37-0.03,3.04,1.93,3.52,3.64c4.69,16.59,7.19,33.47,6.22,50.76
	c-0.17,2.93-1.23,5.44-3.36,7.57c-2.55,2.55-3.38,5.64-2.2,9.16c1.13,3.38,4.15,2.73,6.66,3.12c16.06,2.46,31.7,6.43,45.38,15.54
	c14.87,9.9,24.29,23.86,28.7,41.24c2.25,8.88,7.8,12.89,17.05,12.95c1.67,0.01,3.34-0.07,5,0c5.6,0.25,8.75,3.16,8.6,8.78
	c-0.09,3.35,1.17,5.67,3.16,8.04c1.34,1.59,3.27,2.54,3.59,5.29c0.26,2.22,3.55,0.44,5.83,1.73c-4.49,1.15-4.94,4.46-5.61,7.95
	c-0.67,3.5-1.18,7.27-4,9.94c-2.2,2.08-1.26,3,0.95,4.23c14.55,8.1,26.04,19.7,35.48,33.11c13.26,18.83,22.46,39.52,26.38,62.46
	c5.55,32.5,6,65.3,5.82,98.09c-0.11,20.84-2.12,41.64-9.83,61.3c-5.24,13.36-12.69,25.59-21.07,37.24c-0.76,1.06-2.27,2.07-1.39,3.4
	c0.8,1.21,2.49,0.52,3.76,0.37c2.7-0.31,4.19-2.53,6.09-4.11c1.63-1.35,3.5-3.21,3.46,1.08c-0.02,1.91,2.5,0.51,2.93,2.47
	c-2.82,1.25-3.59,3.25-3.2,6.82c0.6,5.38-3.24,9.75-6.17,13.85c-5.22,7.28-11.52,13.65-19.56,18.03c-1.57,0.86-2.85,2.26-4.26,3.41
	c-0.51,0.01-1.02,0.01-1.54,0.02c-0.67-0.36-1.08-0.15-1.25,0.57c-7.09,4.39-14.8,7.45-22.69,9.93
	c-10.66,3.35-21.16,3.84-30.64-3.73c-5.35-4.27-11.15-6.96-18.17-4.03C676.03,560.19,675.47,560.04,674.97,560.04z"/>
<path class="st0" d="M191.96,538.9c-5.2-3.17-11-5.12-16.11-8.57c-6.9-4.65-11.91-10.59-14.84-18.28
	c-2.92-7.66-1.21-10.87,6.8-13.28c6.93-2.08,14.1-2.37,21.24-2.68c5.32-0.23,10.68-0.35,15.99,0.01c3.9,0.27,4.65-2.22,5.79-4.86
	c1.4-3.24-1.4-3.65-3.06-4.63c-17.87-10.58-27.09-26.01-24.84-46.9c1.48-13.72,7.25-25.95,17.79-35.34
	c6.95-6.19,15.76-7.64,24.64-8.29c9.68-0.7,19.36,0.01,28.81,2.03c4.63,0.99,5.39-0.67,5.78-4.51c2.3-22.7,6.04-45.16,11.66-67.29
	c0.34-1.35-0.13-3.59,1.74-3.74c1.81-0.15,1.67,2.18,2.42,3.39c1.04,1.68,1.95,3.44,3.37,5.98c1.01-2.6,1.75-4.48,2.47-6.37
	c0.46-1.2,0.32-3.09,1.92-3.17c1.61-0.08,1.83,1.78,2.18,2.97c3.39,11.48,7.62,22.71,10.44,34.38c2.13,8.82,4.61,17.55,6.71,26.37
	c0.69,2.87,1.63,4.53,4.92,5.18c9.46,1.87,15.7,7.59,18.3,17.03c1.49,5.4,3.57,9.71,10.44,10.12c4.25,0.26,6.36,3.98,6.38,8.31
	c0.02,4.52-0.6,8.96-2.25,13.21c-1.03,2.64-0.6,4.15,2.75,3.86c3.2-0.28,6.27,0.46,9.21,1.81c5.05,2.32,5.83,4.58,3.21,9.41
	c-1.06,1.95-2.53,3.51-4.21,4.89c-1.11,0.91-2.16,2.13-1.43,3.4c3.12,5.41,0.96,12.28,5.06,17.43c2.1,2.64,2.36,6.02,2.83,9.26
	c2.94,8.78,4.23,17.69,2.26,26.88c-2.12,9.93-6.7,18.82-12.52,26.92c-3.46,4.82-4.33,9.47-2.73,14.92
	c2.11,7.18,3.68,14.57,6.42,21.5c1.78,4.51,0.42,6.01-3.52,6.91c-10.29,3.67-20.4,1.65-30.58-0.7c-8.6-1.99-16.93-4.86-25.36-7.39
	c-3.24-0.97-6.4,0.08-9.18,1.09c-6.18,2.24-12.61,2.86-18.96,4.05c-5.97-0.43-11.9-1.08-17.68-2.76c-1.42-0.41-3.16-1.44-2.54,1.58
	c0.98,4.81-2.06,5.78-5.82,5.74c-2.32-0.02-4.65-0.29-6.95-0.59c-15.22-1.98-24.17-9.82-27.76-24.56
	c-1.14-4.67-2.42-9.48-2.43-14.22C200.68,543.02,198.78,539.15,191.96,538.9z"/>
<path class="st0" d="M-63.02,564.1c2.13,5.5,6.04,7.25,11.8,6.25c3.39-0.59,6.96-0.35,10.44-0.19c2.36,0.11,4.02,1.54,4.55,3.95
	c0.5,2.32-0.84,3.82-2.57,4.96c-2.37,1.56-4.91,2.78-7.66,3.57c-5.89,1.68-11.99,2.39-17.91,4.13c-6.41,1.88-9.45-1.15-9.52-7.92
	c-0.01-1.32-0.22-2.64-0.33-3.96c0.86-5.95-0.57-11.71-2.55-17.1c-3.37-9.21-5.72-18.38-3.49-28.49c-4.48,1.22-8.45,2.29-12.41,3.36
	c-7.39-0.32-14.2-3.23-21.29-4.87c-2.46-0.57-3.58,0.3-5.48,1.78c-8.51,6.6-14,15.97-21.97,23.09c-3.99,3.56-9,7.09-9.32,13.48
	c-2.14,5.34,0.15,9.66,3.13,13.86c1.36,1.92,2.9,4.05,1.27,6.34c-1.5,2.1-3.96,2.98-6.57,2.99c-4.36,0.02-7.02-2.67-9.06-6.08
	c-1.43-2.4-2.59-4.96-3.87-7.45c-0.51-4.67-2.31-9-3.62-13.45c-0.89-3.03-0.25-5.25,2.81-6.48c6.25-2.52,10.9-6.46,13.27-13.11
	c2.82-7.92,8.37-13.83,15.11-18.78c5.29-3.89,5.59-7.37,1.66-12.6c-7.43-9.88-6.59-17.11,2.95-24.98
	c7.21-5.94,14.88-11.22,22.9-16.01c5.79-3.46,5.98-6.95,0.78-10.93c-1.72-1.31-3.66-2.66-4.29-4.77c-1.32-4.35-4.55-5.73-8.55-6.34
	c-3.84-0.58-7.27-2.21-10.67-4.05c-4.68-2.54-10.03-1.27-15.03-1.95c-4.45-0.6-5.98-3.06-7.28-6.33c-1.33-3.34,0.7-4.89,3.38-6.64
	c6.97-4.55,8.25-4.77,14.34,0.98c2.17,2.04,4.34,2.98,7.17,2.32c4.68-1.09,9.37-0.26,13.88,0.54c3.25,0.58,4.99-0.38,7.45-2.21
	c3.46-2.59,4.13-4.78,1.1-8.13c-1.07-0.22-1.84,0.86-2.69,1.44c-9.03,6.11-19.67,4.33-26.28-4.37c-0.98-1.29-2.47-2.2-3.65-3.35
	c-1.41-1.38-3.33-2.73-0.6-4.71c0.59-0.43,1.54-1.34,0.08-1.72c-4.16-1.07-1.91-2.45-0.22-3.7c2.02-1.5,4.21-2.78,3.73-5.9
	c-0.07-0.47,0.56-1.42,1.02-1.53c5.99-1.43,11.36-6.46,18.14-3.31c3.6,1.67,5.02,0.76,6.1-3.26c4.87-18.22,16.35-26.31,35.41-26.75
	c12.65-0.29,21.76,4.83,28.2,15.33c1.26,2.06,2.7,3.01,5.24,2.85c3.81-0.24,7.66-0.11,11.49,0.04c3.17,0.13,3.43,1.87,1.41,3.78
	c-1.91,1.81-4.04,3.95-6.43,4.56c-3.72,0.95-3.58,6.67-8.34,6.03c-0.71-0.1-0.62,2.11-0.35,3.18c0.7,2.83,0.74,6.15-0.4,8.25
	c-3.13,5.76-2.47,11.64-2.25,17.64c0.26,7.2-2.13,12.76-9.72,14.88c-1.66,0.46-2.46,0.94-1.42,3.12
	c4.28,9.02,13.78,10.43,23.64,7.51c3.46-1.03,6.71-1.44,9.28,1.28c2.7,2.85,1.87,5.55-0.45,8.76c-1.94,2.69-3.49,3.98-6.96,4.28
	c-6.25,0.54-12.39,2.28-18.75,2.25c-2.23-0.01-2.91,0.81-1.9,3.12c2.07,4.74,4.14,9.09,10.61,8.29c1.72-0.21,3.56,0.75,5.36,0.99
	c4.04,0.55,7.38,1.41,3.61,6.35c-0.66,0.87-0.21,1.62,0.36,2.21c2.39,2.5,2.57,5.65,2.73,8.83c-0.45,4.98-2.24,9.53-6.06,12.69
	c-5.7,4.72-11.78,9.4-18.8,11.54c-5.56,1.7-6.27,4.67-5.31,9.09c1.16,5.31,0.66,10.5,0.07,15.8
	C-63.19,553.56-64.66,558.81-63.02,564.1z"/>
<path class="st1" d="M347.97,587.16c3.95-0.89,5.3-2.4,3.52-6.91c-2.73-6.93-4.31-14.32-6.42-21.5c-1.6-5.45-0.73-10.09,2.73-14.92
	c5.82-8.11,10.39-17,12.52-26.92c1.97-9.19,0.67-18.1-2.26-26.88c11.62-1.12,23.34,0.63,34.88-0.57
	c10.36-1.08,15.52,2.15,18.91,12.35c5.68,17.1,13.13,33.62,19.89,50.36c11.82,29.27,23.66,58.53,35.56,87.76
	c1.39,3.42,1.38,5.28-3.13,5.13c-5.99-0.2-11.99-0.1-17.98,0.08c-3.21,0.1-4.53-1-4.33-4.32c0.23-3.77,0.05-7.56,0.05-12.04
	c-3.21,3.59-3.46,7.83-4.89,11.51c-1.09,2.8-1.98,5.13-5.77,4.89c-4.19-0.27-3.45-3.46-3.81-5.84c-1.07-7.05-1.91-14.14-3.28-21.25
	c-2.62,8.29-2.44,17.06-4.79,25.69c-2.97-9.31-6.06-18.44-12.77-26.77c0.65,4.95,1.43,9.17,1.73,13.42
	c0.98,13.76-2.84,17.08-16.27,14.6c-2.53-0.47-3.09-2.27-3.65-4.17c-1.05-3.58-1.98-7.2-3.92-10.67c0.14,3.08,0.35,6.16,0.39,9.24
	c0.03,2.03,0.97,4.66-2.08,5.37c-2.94,0.68-5.47,0.26-7.09-2.96c-2.59-5.14-5.52-10.11-8.32-15.14c-0.37-0.66-0.38-1.72-2.28-1.56
	c-0.35,5.07,2.24,9.53,3.59,14.16c1.61,5.48,1.71,5.68-3.86,5.7c-11.89,0.05-12.08,0.07-13.2-12.06
	C350.22,617.7,349.17,602.42,347.97,587.16z"/>
<path class="st1" d="M71.83,513.06c7.46-7.11,14.94-14.2,22.36-21.35c1.42-1.37,3.03-1.98,4.95-1.97
	c19.16,0.02,38.33,0.03,57.49,0.07c0.6,0,1.19,0.28,2.55,0.63c-6,7.74-11.63,15.08-17.33,22.35
	c-17.47,22.27-35.05,44.46-52.45,66.79c-16.27,20.88-32.36,41.89-48.48,62.89c-1.35,1.76-2.84,2.61-5.06,2.52
	c-2.83-0.11-5.66-0.02-8.5-0.01c-5.42,0.02-5.71-0.51-3.59-5.73c2.3-5.67,4.51-11.38,6.41-17.26c-4.99,5.56-7.9,12.41-11.79,18.64
	c-1.13,1.8-1.98,3.81-4.5,4.32c-7.5,1.52-9.08,0.26-9.04-7.29c0.06-10.66,0.06-21.33,0.08-31.99c0-0.41-0.14-0.83-0.34-1.99
	c-2.83,7.35-3.49,14.49-5.25,21.35c-1.2,4.68-2.31,9.38-3.2,14.12c-0.75,3.98-2.21,4.44-5.05,1.62
	c-5.08-5.05-10.23-10.03-15.35-15.03c-0.92-0.9-1.66-2.07-3.86-2.48c2.83,5.76,5.42,11.04,8.02,16.32c2.44,4.95,2.21,5.4-3.07,5.42
	c-12.99,0.03-25.98,0.01-39.02,0.01c-0.63-2.21,1.14-2.98,2.22-4.04c13.44-13.16,26.85-26.36,40.39-39.42
	c11.74-11.31,23.66-22.45,35.5-33.66c2.96,1.47,6.75,2.42,8.14,5.39c4.13,8.82,12.75,11.52,20.47,14.23
	c7.69,2.7,16.39,2.48,24.72,1.42c8.6-1.09,13.49-5.42,15.77-13.72c1.55-5.66,2.1-11.45,1.85-17.27c-0.27-6.47-0.69-13.12-3.84-18.87
	c-2.08-3.8-3.39-7.38-3.11-11.7c0.32-5.02-1.68-9.05-6.03-11.78C72.91,514.97,71.79,514.49,71.83,513.06z"/>
<path class="st1" d="M-92.69,532.67c3.96-1.07,7.93-2.15,12.41-3.36c-2.23,10.1,0.12,19.28,3.49,28.49
	c1.98,5.39,3.41,11.15,2.55,17.1c-7.58,2.7-12.8,8.82-19.06,13.38c-24.75,18.03-49.28,36.35-73.85,54.62
	c-1.99,1.48-4.05,2.14-6.47,2.11c-4.83-0.05-9.67-0.21-14.48,0.08c-4.06,0.25-4.19-1.48-2.8-4.38c2.52-5.26,5.15-10.42,9.41-14.58
	c0.92-0.9,3.04-1.91,1.94-3.55c-0.86-1.28-2.78-0.44-4.23-0.26c-5.31,0.64-9.28,3.22-11.99,7.94c-0.92,1.6-1.41,3.78-4.08,4.62
	c0-8.9,0-17.59,0-27.41c-1.82,2.49-1.65,4.36-1.9,6.11c-1.26,9.07-2.51,18.14-3.79,27.2c-0.28,1.96-0.29,4.06-3.15,4.26
	c-2.64,0.18-4.53-0.56-5.5-3.19c-1.93-5.22-3.95-10.4-7.42-16.14c0.27,5.83,1.69,10.25,2.7,14.75c0.68,3.02,0.21,4.63-3.5,4.61
	c-20.48-0.11-40.96-0.03-61.45-0.03c-0.27,0-0.55-0.27-1.08-0.56c0.37-2.06,2.23-2.61,3.7-3.45c27.74-15.83,55.51-31.6,83.24-47.46
	c9.24-5.29,18.37-10.78,27.55-16.18c1.43-0.84,2.8-1.86,4.61-1.57c1.28,2.49,2.44,5.05,3.87,7.45c2.04,3.41,4.7,6.1,9.06,6.08
	c2.61-0.01,5.08-0.89,6.57-2.99c1.63-2.29,0.09-4.42-1.27-6.34c-2.98-4.19-5.27-8.52-3.13-13.86c10.85-6.04,21.75-11.99,32.54-18.15
	C-109.59,543.08-100.73,538.56-92.69,532.67z"/>
<path class="st1" d="M528.35,582.88c-1.06-0.97-1.13-2-0.19-3.08c0,0,0.03-0.03,0.03-0.03c0.48-0.54,0.97-1.08,1.45-1.61
	c0.52,0.06,0.68-0.16,0.5-0.65c6.76-8.62,7.01-19.49,10.04-29.77c18.61,12.6,39.86,13.43,60.86,15.33c1.61,3.6,5.13,5.47,7.73,8.12
	c21.09,21.48,42.42,42.73,63.77,63.96c2.86,2.85,6.55,4.9,8.37,9.75c-8.21,0-15.95,0.04-23.69-0.02c-2.51-0.02-3.1-2.26-3.93-4.01
	c-2.9-6.09-5.99-12.05-10.5-18.89c0.12,6.92,1.87,12.03,3.32,17.2c1.51,5.37,1.2,5.43-4.19,5.88c-4.5,0.37-7.6-1.44-10.51-4.44
	c-1.69-1.74-3.67-3.19-5.6-4.83c-0.37,0.69-0.69,1.01-0.63,1.23c2.19,7.97,2.19,7.98-6.18,7.98c-8.99,0-17.99-0.25-26.97,0.06
	c-4.36,0.15-5.76-1.09-5.67-5.56c0.27-14.3,0.1-28.61-0.11-42.97c-3.55,14.15-4.15,28.88-7.73,43.18c-2.66-7.2-2.95-14.89-5.94-22
	c-2.04,8.8-1.91,17.71-1.22,26.82C567.36,642.65,537.49,599.55,528.35,582.88z"/>
<path class="st1" d="M674.97,560.04c0.5,0,1.06,0.16,1.48-0.02c7.01-2.93,12.82-0.24,18.17,4.03c9.48,7.57,19.98,7.08,30.64,3.73
	c7.89-2.47,15.6-5.54,22.69-9.93c0.42-0.19,0.84-0.38,1.25-0.58c0.51-0.01,1.02-0.01,1.54-0.02c0.48,2.31,2.69,2.79,4.27,3.82
	c28.58,18.63,57.18,37.23,85.81,55.78c12.15,7.87,24.38,15.61,36.56,23.45c1.6,1.03,3.53,1.78,4.42,3.83
	c-9.3,3.16-15.86-0.45-21.03-8.66c-1.16,2.18-0.61,3.32-0.31,4.52c0.42,1.65,1.84,3.8-0.58,4.74c-2,0.78-4.31,0.51-5.9-1.48
	c-0.31-0.39-0.59-0.8-0.87-1.22c-4.63-7-4.72-7.07-9.83-0.07c-1.68,2.3-3.58,3.13-6.32,3.09c-6.66-0.11-13.34-0.24-19.98,0.09
	c-3.93,0.2-6.17-1.03-7.57-4.76c-3.31-8.81-9.79-15.21-17.04-21.86c-0.34,3.21,0.9,5.35,1.95,7.39c2.45,4.78,3.92,9.89,5.37,15.01
	c0.4,1.42,1.3,3.5-1.28,4.02c-2.11,0.42-4.05,0.07-4.7-2.46c-1.28-4.96-2.42-9.97-5.43-16.01c0,5.62-0.15,9.78,0.05,13.92
	c0.17,3.46-1.19,4.58-4.63,4.7c-4.6,0.17-8.03-1.16-11.65-4.24c-13.04-11.11-26.52-21.72-39.81-32.55
	c-18.18-14.82-36.35-29.66-54.51-44.52C676.51,562.78,674.63,562.21,674.97,560.04z"/>
<path class="st1" d="M191.96,538.9c6.82,0.26,8.72,4.13,8.74,10.48c0.01,4.75,1.29,9.55,2.43,14.22
	c3.59,14.74,12.54,22.58,27.76,24.56c2.31,0.3,4.63,0.57,6.95,0.59c3.77,0.04,6.81-0.92,5.82-5.74c-0.62-3.02,1.13-2,2.54-1.58
	c5.77,1.68,11.71,2.33,17.68,2.76c0.32,7.28-2.57,13.98-3.84,20.97c-2.08,11.46-4.59,22.83-6.94,34.24
	c-0.49,2.37-0.3,5.65-3.74,5.51c-3.83-0.16-8.49,2.17-11.17-2.91c-3.12-5.92-7.17-11.05-14.24-15.57c2.15,5.52,3.69,9.78,5.45,13.94
	c1.44,3.39,0.85,4.86-3.18,4.73c-3.53-0.11-6.37-1.03-8.9-3.64c-6.72-6.92-11.96-14.55-13.01-24.57
	c-3.57,7.46-2.07,14.37,1.97,21.03c0.6,0.99,1.42,1.84,2.12,2.78c0.78,1.04,2.19,2,1.65,3.4c-0.6,1.59-2.31,0.89-3.55,0.91
	c-5.16,0.08-10.33-0.07-15.48,0.12c-3.49,0.13-4.39-1.08-3.46-4.45c2.08-7.55,2.19-15.52,5.96-23.94c-3.71,1.81-4.2,4.25-5.32,6.13
	c-3.76,6.28-7.53,12.57-11.13,18.95c-1.63,2.88-2.79,2.35-3.89-0.19c-1.89-4.36-2.57-9.21-5.35-13.97c-2.45,2.97-2.05,6.3-2.71,9.14
	c-1.9,8.17-1.74,8.2-10.28,8.18c-3.66-0.01-7.34-0.17-10.99,0.06c-4.13,0.26-4.02-1.39-2.52-4.37c9.4-18.55,18.8-37.09,28.06-55.71
	C177.04,569.67,184.46,554.26,191.96,538.9z"/>
<path class="st0" d="M71.83,513.06c-0.04,1.42,1.08,1.91,2.05,2.52c4.34,2.73,6.35,6.76,6.03,11.78c-0.28,4.32,1.04,7.9,3.11,11.7
	c3.15,5.75,3.56,12.4,3.84,18.87c0.25,5.82-0.31,11.61-1.85,17.27c-2.27,8.3-7.17,12.63-15.77,13.72
	c-8.33,1.06-17.03,1.28-24.72-1.42c-7.72-2.71-16.34-5.41-20.47-14.23c-1.39-2.98-5.18-3.93-8.14-5.39
	c-2.57-2.78-8.42-4.35-7.03-8.43c1.15-3.38,6.81-3.07,10.41-2.47c7.33,1.22,10.2-2.25,12.6-8.59c4.52-11.98,10.49-23.33,18.67-33.32
	c1.56-1.91,1.55-3.93,1.53-6.07c-0.06-8,0.83-15.9,2.63-23.68c0.35-1.49-0.01-3.83,2.11-4.01c1.8-0.15,1.7,2.13,2.51,3.29
	c0.27,0.38,0.69,0.66,1.02,0.97c2.11-0.96,2-4.91,4.3-4.29c2.43,0.65,1.67,4.03,2.1,6.14c1.57,7.63,2.7,15.35,4.01,23.03
	C70.94,511.37,70.78,512.46,71.83,513.06z"/>
<path class="st1" d="M-63.02,564.1c-1.64-5.29-0.17-10.54,0.41-15.75c0.59-5.31,1.09-10.49-0.07-15.8c-0.96-4.42-0.25-7.4,5.31-9.09
	c7.02-2.14,13.1-6.82,18.8-11.54c3.82-3.16,5.61-7.71,6.06-12.69c4.54-2.72,9.09-5.45,13.64-8.16c1.91-1.14,4.01-1.58,6.21-1.58
	c16.13,0,32.26-0.01,48.4,0.03c0.95,0,1.9,0.35,3.72,0.71c-8.15,6.1-15.66,11.77-23.21,17.38c-13.47,10-26.93,20.02-40.47,29.93
	c-11.78,8.63-23.67,17.12-35.49,25.69C-60.75,563.97-61.86,564.06-63.02,564.1z"/>
</svg>
